name Walk9.mot
datacolumns 19
datarows 27
range 1.75500000 1.78100000
endheader

                time	   L_ground_force_vx	   L_ground_force_vy	   L_ground_force_vz	   L_ground_force_px	   L_ground_force_py	   L_ground_force_pz	   R_ground_force_vx	   R_ground_force_vy	   R_ground_force_vz	   R_ground_force_px	   R_ground_force_py	   R_ground_force_pz	   L_ground_torque_x	   L_ground_torque_y	   L_ground_torque_z	   R_ground_torque_x	   R_ground_torque_y	   R_ground_torque_z	
          1.75500000	         35.59787761	        974.46222706	         75.20867592	         -0.20480274	          0.00000000	         -0.06867689	         -0.02966263	          0.35464341	          0.02812686	          0.00024602	          0.00000000	          0.00015861	          0.00000000	          1.49105539	          0.00000000	          0.00000000	          0.00483996	          0.00000000	
          1.75600000	         35.99857673	        975.30109440	         75.32557617	         -0.20447561	          0.00000000	         -0.06868871	         -0.03171582	          0.37138555	          0.02895883	          0.00025327	          0.00000000	          0.00016306	          0.00000000	          1.50041532	          0.00000000	          0.00000000	          0.00522365	          0.00000000	
          1.75700000	         36.40698029	        976.12508183	         75.44141797	         -0.20415048	          0.00000000	         -0.06870062	         -0.03382881	          0.38814966	          0.02974852	          0.00026015	          0.00000000	          0.00016725	          0.00000000	          1.50937020	          0.00000000	          0.00000000	          0.00562143	          0.00000000	
          1.75800000	         36.82326009	        976.93467065	         75.55609765	         -0.20382745	          0.00000000	         -0.06871258	         -0.03599845	          0.40486855	          0.03048873	          0.00026659	          0.00000000	          0.00017113	          0.00000000	          1.51791415	          0.00000000	          0.00000000	          0.00603295	          0.00000000	
          1.75900000	         37.24758068	        977.73034494	         75.66951640	         -0.20350663	          0.00000000	         -0.06872458	         -0.03822103	          0.42146898	          0.03117181	          0.00027253	          0.00000000	          0.00017468	          0.00000000	          1.52604254	          0.00000000	          0.00000000	          0.00645780	          0.00000000	
          1.76000000	         37.68009756	        978.51258731	         75.78158045	         -0.20318811	          0.00000000	         -0.06873660	         -0.04049229	          0.43787137	          0.03178963	          0.00027789	          0.00000000	          0.00017783	          0.00000000	          1.53375238	          0.00000000	          0.00000000	          0.00689546	          0.00000000	
          1.76100000	         38.12095501	        979.28187558	         75.89220160	         -0.20287198	          0.00000000	         -0.06874860	         -0.04280738	          0.45398959	          0.03233357	          0.00028261	          0.00000000	          0.00018053	          0.00000000	          1.54104282	          0.00000000	          0.00000000	          0.00734531	          0.00000000	
          1.76200000	         38.57028440	        980.03868022	         76.00129807	         -0.20255834	          0.00000000	         -0.06876058	         -0.04516081	          0.46973066	          0.03279452	          0.00028659	          0.00000000	          0.00018275	          0.00000000	          1.54791550	          0.00000000	          0.00000000	          0.00780663	          0.00000000	
          1.76300000	         39.02820351	        980.78346262	         76.10879555	         -0.20224727	          0.00000000	         -0.06877250	         -0.04754642	          0.48499452	          0.03316286	          0.00028977	          0.00000000	          0.00018441	          0.00000000	          1.55437460	          0.00000000	          0.00000000	          0.00827857	          0.00000000	
          1.76400000	         39.49481684	        981.51667388	         76.21462822	         -0.20193884	          0.00000000	         -0.06878436	         -0.04995736	          0.49967379	          0.03342848	          0.00029204	          0.00000000	          0.00018547	          0.00000000	          1.56042669	          0.00000000	          0.00000000	          0.00876018	          0.00000000	
          1.76500000	         39.97021680	        982.23875455	         76.31873940	         -0.20163315	          0.00000000	         -0.06879612	         -0.05238601	          0.51365353	          0.03358072	          0.00029332	          0.00000000	          0.00018586	          0.00000000	          1.56608025	          0.00000000	          0.00000000	          0.00925037	          0.00000000	
          1.76600000	         40.45448507	        982.95013525	         76.42108162	         -0.20133026	          0.00000000	         -0.06880776	         -0.05482399	          0.52681100	          0.03360842	          0.00029350	          0.00000000	          0.00018552	          0.00000000	          1.57134514	          0.00000000	          0.00000000	          0.00974790	          0.00000000	
          1.76700000	         40.94769375	        983.65123790	         76.52161596	         -0.20103023	          0.00000000	         -0.06881925	         -0.05726211	          0.53901543	          0.03349990	          0.00029249	          0.00000000	          0.00018438	          0.00000000	          1.57623216	          0.00000000	          0.00000000	          0.01025140	          0.00000000	
          1.76800000	         41.44990598	        984.34247650	         76.62031055	         -0.20073314	          0.00000000	         -0.06883057	         -0.05969030	          0.55012789	          0.03324294	          0.00029018	          0.00000000	          0.00018237	          0.00000000	          1.58075285	          0.00000000	          0.00000000	          0.01075936	          0.00000000	
          1.76900000	         41.96117550	        985.02425691	         76.71713877	         -0.20043903	          0.00000000	         -0.06884169	         -0.06209761	          0.56000099	          0.03282481	          0.00028645	          0.00000000	          0.00017942	          0.00000000	          1.58491962	          0.00000000	          0.00000000	          0.01127009	          0.00000000	
          1.77000000	         42.48154551	        985.69697527	         76.81207762	         -0.20014797	          0.00000000	         -0.06885258	         -0.06447216	          0.56847879	          0.03223227	          0.00028120	          0.00000000	          0.00017546	          0.00000000	          1.58874603	          0.00000000	          0.00000000	          0.01178173	          0.00000000	
          1.77100000	         43.01104672	        986.36101580	         76.90510645	         -0.19986001	          0.00000000	         -0.06886321	         -0.06680111	          0.57539663	          0.03145154	          0.00027429	          0.00000000	          0.00017041	          0.00000000	          1.59224708	          0.00000000	          0.00000000	          0.01229226	          0.00000000	
          1.77200000	         43.54969550	        987.01674911	         76.99620642	         -0.19957518	          0.00000000	         -0.06887355	         -0.06907059	          0.58058097	          0.03046838	          0.00026561	          0.00000000	          0.00016418	          0.00000000	          1.59543916	          0.00000000	          0.00000000	          0.01279946	          0.00000000	
          1.77300000	         44.09749267	        987.66453152	         77.08536034	         -0.19929353	          0.00000000	         -0.06888358	         -0.07126571	          0.58384932	          0.02926802	          0.00025503	          0.00000000	          0.00015670	          0.00000000	          1.59833974	          0.00000000	          0.00000000	          0.01330093	          0.00000000	
          1.77400000	         44.65442345	        988.30470560	         77.17255271	         -0.19901509	          0.00000000	         -0.06889327	         -0.07337049	          0.58501014	          0.02783524	          0.00024241	          0.00000000	          0.00014787	          0.00000000	          1.60096688	          0.00000000	          0.00000000	          0.01379407	          0.00000000	
          1.77500000	         45.22045853	        988.93760087	         77.25776955	         -0.19873989	          0.00000000	         -0.06890260	         -0.07536784	          0.58386278	          0.02615437	          0.00022762	          0.00000000	          0.00013761	          0.00000000	          1.60333861	          0.00000000	          0.00000000	          0.01427607	          0.00000000	
          1.77600000	         45.79555592	        989.56353390	         77.34099769	         -0.19846797	          0.00000000	         -0.06891154	         -0.07723954	          0.58019751	          0.02420929	          0.00021051	          0.00000000	          0.00012583	          0.00000000	          1.60547251	          0.00000000	          0.00000000	          0.01474389	          0.00000000	
          1.77700000	         46.37966268	        990.18280723	         77.42222336	         -0.19819935	          0.00000000	         -0.06892007	         -0.07896617	          0.57379548	          0.02198348	          0.00019094	          0.00000000	          0.00011244	          0.00000000	          1.60738558	          0.00000000	          0.00000000	          0.01519430	          0.00000000	
          1.77800000	         46.97271585	        990.79570730	         77.50143038	         -0.19793404	          0.00000000	         -0.06892816	         -0.08052712	          0.56442882	          0.01946004	          0.00016877	          0.00000000	          0.00009734	          0.00000000	          1.60909444	          0.00000000	          0.00000000	          0.01562382	          0.00000000	
          1.77900000	         47.57464235	        991.40250190	         77.57859844	         -0.19767206	          0.00000000	         -0.06893580	         -0.08190055	          0.55186072	          0.01662175	          0.00014384	          0.00000000	          0.00008043	          0.00000000	          1.61061579	          0.00000000	          0.00000000	          0.01602872	          0.00000000	
          1.78000000	         48.18535805	        992.00343772	         77.65370230	         -0.19741342	          0.00000000	         -0.06894296	         -0.08306337	          0.53584560	          0.01345106	          0.00011600	          0.00000000	          0.00006162	          0.00000000	          1.61196685	          0.00000000	          0.00000000	          0.01640505	          0.00000000	
          1.78100000	         48.80476658	        992.59873849	         77.72671203	         -0.19715811	          0.00000000	         -0.06894963	         -0.08399120	          0.51612927	          0.00993018	          0.00008509	          0.00000000	          0.00004080	          0.00000000	          1.61316566	          0.00000000	          0.00000000	          0.01674859	          0.00000000	
